<mxfile host="app.diagrams.net" agent="Mozilla/5.0 (Windows NT 10.0; Win64; x64) AppleWebKit/537.36 (KHTML, like Gecko) Chrome/134.0.0.0 Safari/537.36 Edg/134.0.0.0" version="26.1.0">
  <diagram name="第 1 页" id="rnYPFjGO7DgJ9-4cyNgM">
    <mxGraphModel dx="837" dy="466" grid="1" gridSize="10" guides="1" tooltips="1" connect="1" arrows="1" fold="1" page="1" pageScale="1" pageWidth="827" pageHeight="1169" math="0" shadow="0">
      <root>
        <mxCell id="0" />
        <mxCell id="1" parent="0" />
        <mxCell id="9jFsSqyKoTETl62CdU1h-1" value="" style="shape=cube;whiteSpace=wrap;html=1;boundedLbl=1;backgroundOutline=1;darkOpacity=0.05;darkOpacity2=0.1;size=30;rotation=0;flipV=0;flipH=1;" vertex="1" parent="1">
          <mxGeometry x="180" y="220" width="260" height="100" as="geometry" />
        </mxCell>
        <mxCell id="9jFsSqyKoTETl62CdU1h-81" value="" style="endArrow=classic;startArrow=classic;html=1;rounded=0;" edge="1" parent="1">
          <mxGeometry width="50" height="50" relative="1" as="geometry">
            <mxPoint x="399" y="310" as="sourcePoint" />
            <mxPoint x="399" y="255" as="targetPoint" />
          </mxGeometry>
        </mxCell>
        <mxCell id="9jFsSqyKoTETl62CdU1h-82" value="20" style="edgeLabel;html=1;align=center;verticalAlign=middle;resizable=0;points=[];" vertex="1" connectable="0" parent="9jFsSqyKoTETl62CdU1h-81">
          <mxGeometry x="-0.1301" relative="1" as="geometry">
            <mxPoint y="-3" as="offset" />
          </mxGeometry>
        </mxCell>
        <mxCell id="9jFsSqyKoTETl62CdU1h-84" value="" style="endArrow=classic;startArrow=classic;html=1;rounded=0;" edge="1" parent="1">
          <mxGeometry width="50" height="50" relative="1" as="geometry">
            <mxPoint x="410" y="260" as="sourcePoint" />
            <mxPoint x="440" y="230" as="targetPoint" />
          </mxGeometry>
        </mxCell>
        <mxCell id="9jFsSqyKoTETl62CdU1h-85" value="20" style="edgeLabel;html=1;align=center;verticalAlign=middle;resizable=0;points=[];" vertex="1" connectable="0" parent="9jFsSqyKoTETl62CdU1h-84">
          <mxGeometry x="-0.2939" relative="1" as="geometry">
            <mxPoint x="3" y="-4" as="offset" />
          </mxGeometry>
        </mxCell>
        <mxCell id="9jFsSqyKoTETl62CdU1h-86" value="" style="endArrow=classic;startArrow=classic;html=1;rounded=0;" edge="1" parent="1">
          <mxGeometry width="50" height="50" relative="1" as="geometry">
            <mxPoint x="189" y="240" as="sourcePoint" />
            <mxPoint x="404" y="240" as="targetPoint" />
          </mxGeometry>
        </mxCell>
        <mxCell id="9jFsSqyKoTETl62CdU1h-87" value="84" style="edgeLabel;html=1;align=center;verticalAlign=middle;resizable=0;points=[];" vertex="1" connectable="0" parent="9jFsSqyKoTETl62CdU1h-86">
          <mxGeometry x="0.2323" y="-2" relative="1" as="geometry">
            <mxPoint x="-31" as="offset" />
          </mxGeometry>
        </mxCell>
        <mxCell id="9jFsSqyKoTETl62CdU1h-88" value="（0.01, 0.02, 0.35, 0.03, 0.11, 0.19, ……, 0.02）" style="text;html=1;align=center;verticalAlign=middle;whiteSpace=wrap;rounded=0;strokeColor=default;" vertex="1" parent="1">
          <mxGeometry x="140" y="370" width="260" height="30" as="geometry" />
        </mxCell>
        <mxCell id="9jFsSqyKoTETl62CdU1h-91" value="80类目标的softmax值" style="text;html=1;align=center;verticalAlign=middle;whiteSpace=wrap;rounded=0;" vertex="1" parent="1">
          <mxGeometry x="210" y="400" width="130" height="30" as="geometry" />
        </mxCell>
        <mxCell id="9jFsSqyKoTETl62CdU1h-92" value="" style="endArrow=none;html=1;rounded=0;" edge="1" parent="1">
          <mxGeometry width="50" height="50" relative="1" as="geometry">
            <mxPoint x="390" y="320" as="sourcePoint" />
            <mxPoint x="390" y="300" as="targetPoint" />
          </mxGeometry>
        </mxCell>
        <mxCell id="9jFsSqyKoTETl62CdU1h-93" value="" style="endArrow=none;html=1;rounded=0;exitX=0;exitY=0;exitDx=0;exitDy=0;dashed=1;fillColor=#f8cecc;strokeColor=#b85450;" edge="1" parent="1" source="9jFsSqyKoTETl62CdU1h-88">
          <mxGeometry width="50" height="50" relative="1" as="geometry">
            <mxPoint x="130" y="370" as="sourcePoint" />
            <mxPoint x="180" y="320" as="targetPoint" />
          </mxGeometry>
        </mxCell>
        <mxCell id="9jFsSqyKoTETl62CdU1h-94" value="" style="endArrow=none;html=1;rounded=0;exitX=1;exitY=0;exitDx=0;exitDy=0;dashed=1;fillColor=#f8cecc;strokeColor=#b85450;" edge="1" parent="1" source="9jFsSqyKoTETl62CdU1h-88">
          <mxGeometry width="50" height="50" relative="1" as="geometry">
            <mxPoint x="420" y="410" as="sourcePoint" />
            <mxPoint x="390" y="320" as="targetPoint" />
          </mxGeometry>
        </mxCell>
        <mxCell id="9jFsSqyKoTETl62CdU1h-96" value="" style="endArrow=none;html=1;rounded=0;dashed=1;fillColor=#dae8fc;strokeColor=#6c8ebf;entryX=0;entryY=0;entryDx=0;entryDy=0;" edge="1" parent="1" target="9jFsSqyKoTETl62CdU1h-98">
          <mxGeometry width="50" height="50" relative="1" as="geometry">
            <mxPoint x="390" y="320" as="sourcePoint" />
            <mxPoint x="480" y="370" as="targetPoint" />
          </mxGeometry>
        </mxCell>
        <mxCell id="9jFsSqyKoTETl62CdU1h-97" value="" style="endArrow=none;html=1;rounded=0;exitX=0;exitY=0;exitDx=30;exitDy=100;exitPerimeter=0;dashed=1;fillColor=#dae8fc;strokeColor=#6c8ebf;entryX=1;entryY=0;entryDx=0;entryDy=0;" edge="1" parent="1" source="9jFsSqyKoTETl62CdU1h-1" target="9jFsSqyKoTETl62CdU1h-98">
          <mxGeometry width="50" height="50" relative="1" as="geometry">
            <mxPoint x="460" y="380" as="sourcePoint" />
            <mxPoint x="550" y="370" as="targetPoint" />
          </mxGeometry>
        </mxCell>
        <mxCell id="9jFsSqyKoTETl62CdU1h-98" value="（0.35, 0.59, 0.11,0.14）" style="text;html=1;align=center;verticalAlign=middle;whiteSpace=wrap;rounded=0;" vertex="1" parent="1">
          <mxGeometry x="460" y="370" width="140" height="30" as="geometry" />
        </mxCell>
      </root>
    </mxGraphModel>
  </diagram>
</mxfile>
